C:\Users\r0593348\3dpredictsim\Results\Batchsim_tmt_linear\Pog_s1_tmt_bCst_d02_k2000_ig24_act_GRF.mot
nRows=15
nColumns=19

name C:\Users\r0593348\3dpredictsim\Results\Batchsim_tmt_linear\Pog_s1_tmt_bCst_d02_k2000_ig24_act_GRF.mot
datacolumns 19
datarows 15
range 0.5885732520 0.7533737626
endheader
time 	ground_force_vx	ground_force_vy	ground_force_vz	ground_force_px	ground_force_py	ground_force_pz	1_ground_force_vx	1_ground_force_vy	1_ground_force_vz	1_ground_force_px	1_ground_force_py	1_ground_force_pz	ground_torque_x	ground_torque_y	ground_torque_z	1_ground_torque_x	1_ground_torque_y	1_ground_torque_z
        0.5885732520	      106.6306006424	      431.0123876826	        1.9099447729	        0.3891640010	        0.0000000000	        0.0353656561	      -68.8473343252	       53.1180662095	      -17.3221212824	        0.9063110428	        0.0000000000	       -0.0502817968	        0.0000000000	        0.0000000000	        0.0000000000	        0.0000000000	        0.0000000000	        0.0000000000	
        0.6003447171	       74.8027611208	      331.2420235072	        7.6253233223	        0.3962198132	        0.0000000000	        0.0326413120	     -133.6017612128	      136.6450109531	      -48.7350504667	        0.9148109732	        0.0000000000	       -0.0483599459	        0.0000000000	        0.0000000000	        0.0000000000	        0.0000000000	        0.0000000000	        0.0000000000	
        0.6121161821	       42.0798521319	      223.0022459205	       13.7655690626	        0.4087022417	        0.0000000000	        0.0272935105	      -61.4282494930	      302.5310610746	      -19.1942106194	        0.9213188391	        0.0000000000	       -0.0466072812	        0.0000000000	        0.0000000000	        0.0000000000	        0.0000000000	        0.0000000000	        0.0000000000	
        0.6238876472	       26.7207748511	      168.0093203416	       13.7692860741	        0.4172902985	        0.0000000000	        0.0229643370	      -54.6659431203	      505.2852853519	        3.5846147724	        0.9265450549	        0.0000000000	       -0.0470264550	        0.0000000000	        0.0000000000	        0.0000000000	        0.0000000000	        0.0000000000	        0.0000000000	
        0.6356591122	       23.5242672601	      131.7176638842	       15.5067318447	        0.4176093472	        0.0000000000	        0.0231959202	      -95.9086562393	      732.7764552143	       14.2946204514	        0.9365381697	        0.0000000000	       -0.0494831622	        0.0000000000	        0.0000000000	        0.0000000000	        0.0000000000	        0.0000000000	        0.0000000000	
        0.6474305772	       15.1224604833	       86.2377249461	       14.1948899744	        0.4179544936	        0.0000000000	        0.0232837862	     -122.3387987778	      855.6560415202	       20.8200959163	        0.9433313492	        0.0000000000	       -0.0510500755	        0.0000000000	        0.0000000000	        0.0000000000	        0.0000000000	        0.0000000000	        0.0000000000	
        0.6592020423	        0.7890001284	       35.1693649288	        7.5205717181	        0.4174587517	        0.0000000000	        0.0232081610	     -127.7992556834	      879.1074271783	       20.8155324627	        0.9477858789	        0.0000000000	       -0.0519714471	        0.0000000000	        0.0000000000	        0.0000000000	        0.0000000000	        0.0000000000	        0.0000000000	
        0.6709735073	        0.2998731835	       -0.3061635228	       -0.0111389065	        0.0000000000	        0.0000000000	        0.0000000000	     -119.7178005865	      860.4906716133	       20.1385087465	        0.9514933442	        0.0000000000	       -0.0524763886	        0.0000000000	        0.0000000000	        0.0000000000	        0.0000000000	        0.0000000000	        0.0000000000	
        0.6827449724	        0.0012644525	       -0.0010323031	        0.0000728395	        0.0000000000	        0.0000000000	        0.0000000000	     -106.2515184581	      824.1001080941	       19.6288095490	        0.9554396553	        0.0000000000	       -0.0526420979	        0.0000000000	        0.0000000000	        0.0000000000	        0.0000000000	        0.0000000000	        0.0000000000	
        0.6945164374	        0.0014869636	       -0.0010411442	        0.0001086880	        0.0000000000	        0.0000000000	        0.0000000000	      -93.2702363307	      782.9845299925	       19.1642578487	        0.9599420802	        0.0000000000	       -0.0525932324	        0.0000000000	        0.0000000000	        0.0000000000	        0.0000000000	        0.0000000000	        0.0000000000	
        0.7062879024	        0.0175892073	       -0.0109737685	        0.0013879702	        0.0000000000	        0.0000000000	        0.0000000000	      -83.8112104063	      748.0985161438	       18.9488634283	        0.9652672712	        0.0000000000	       -0.0523474943	        0.0000000000	        0.0000000000	        0.0000000000	        0.0000000000	        0.0000000000	        0.0000000000	
        0.7180593675	       -0.1218086631	        0.0694626126	       -0.0099820965	        0.0000000000	        0.0000000000	        0.0000000000	      -74.4361653507	      717.0762165059	       18.9614025668	        0.9706092362	        0.0000000000	       -0.0520054802	        0.0000000000	        0.0000000000	        0.0000000000	        0.0000000000	        0.0000000000	        0.0000000000	
        0.7298308325	       -0.1263975254	        0.0677196145	       -0.0100293303	        0.0000000000	        0.0000000000	        0.0000000000	      -64.8759615621	      687.2321903178	       19.1867075195	        0.9754968602	        0.0000000000	       -0.0517260052	        0.0000000000	        0.0000000000	        0.0000000000	        0.0000000000	        0.0000000000	        0.0000000000	
        0.7416022976	       -0.0737390498	        0.0375372060	       -0.0057699385	        0.0000000000	        0.0000000000	        0.0000000000	      -55.8479631830	      661.0015287716	       19.6019029858	        0.9801272602	        0.0000000000	       -0.0515230901	        0.0000000000	        0.0000000000	        0.0000000000	        0.0000000000	        0.0000000000	        0.0000000000	
        0.7533737626	       -0.0478414977	        0.0233444693	       -0.0037084972	        0.0000000000	        0.0000000000	        0.0000000000	      -47.7219234716	      639.3166210284	       20.0279496866	        0.9847166467	        0.0000000000	       -0.0513711672	        0.0000000000	        0.0000000000	        0.0000000000	        0.0000000000	        0.0000000000	        0.0000000000	
